<svg xmlns="http://www.w3.org/2000/svg" viewBox="0 0 800 520" role="img" aria-label="Aperçu de la plateforme RBWCA Data Compilation">
  <rect width="800" height="520" fill="#F4F1E9"/>
  <g stroke="#0072BC" stroke-width="1" opacity="0.06">
    <path d="M0 130H800M0 260H800M0 390H800M130 0V520M270 0V520M410 0V520M550 0V520M690 0V520"/>
  </g>
  <!-- app window -->
  <rect x="64" y="58" width="672" height="404" rx="16" fill="#FFFFFF" stroke="#E6E0D4"/>
  <path d="M64 96 q0-38 38-38 h596 q38 0 38 38 v8 H64 Z" fill="#0E1B2A"/>
  <circle cx="92" cy="78" r="5" fill="#C0561F"/><circle cx="110" cy="78" r="5" fill="#E2B23C"/><circle cx="128" cy="78" r="5" fill="#2E7D5B"/>
  <text x="160" y="83" font-family="'IBM Plex Mono',monospace" font-size="13" fill="#C6CED6">RBWCA Data Compilation — 23 country operations</text>
  <!-- sidebar -->
  <rect x="84" y="124" width="120" height="318" rx="10" fill="#EAF2F9"/>
  <rect x="100" y="146" width="88" height="10" rx="5" fill="#0072BC" opacity="0.85"/>
  <rect x="100" y="172" width="72" height="8" rx="4" fill="#9DBBD3"/>
  <rect x="100" y="192" width="80" height="8" rx="4" fill="#9DBBD3"/>
  <rect x="100" y="212" width="60" height="8" rx="4" fill="#9DBBD3"/>
  <rect x="100" y="232" width="78" height="8" rx="4" fill="#9DBBD3"/>
  <!-- KPI row -->
  <rect x="224" y="124" width="146" height="70" rx="10" fill="#F7FAFD" stroke="#E6E0D4"/>
  <rect x="384" y="124" width="146" height="70" rx="10" fill="#F7FAFD" stroke="#E6E0D4"/>
  <rect x="544" y="124" width="148" height="70" rx="10" fill="#F7FAFD" stroke="#E6E0D4"/>
  <text x="240" y="158" font-family="'Fraunces',serif" font-size="26" fill="#0072BC" font-weight="600">23</text>
  <text x="400" y="158" font-family="'Fraunces',serif" font-size="26" fill="#18375F" font-weight="600">8.6k</text>
  <text x="560" y="158" font-family="'Fraunces',serif" font-size="26" fill="#C0561F" font-weight="600">DIMA</text>
  <text x="240" y="178" font-family="'IBM Plex Mono',monospace" font-size="10" fill="#6B7884">PAYS</text>
  <text x="400" y="178" font-family="'IBM Plex Mono',monospace" font-size="10" fill="#6B7884">RECORDS</text>
  <text x="560" y="178" font-family="'IBM Plex Mono',monospace" font-size="10" fill="#6B7884">SECTION</text>
  <!-- bar chart -->
  <rect x="224" y="214" width="306" height="228" rx="10" fill="#F7FAFD" stroke="#E6E0D4"/>
  <g fill="#0072BC">
    <rect x="248" y="360" width="26" height="60" rx="3"/>
    <rect x="288" y="320" width="26" height="100" rx="3"/>
    <rect x="328" y="286" width="26" height="134" rx="3"/>
    <rect x="368" y="338" width="26" height="82" rx="3"/>
    <rect x="408" y="300" width="26" height="120" rx="3"/>
    <rect x="448" y="262" width="26" height="158" rx="3"/>
    <rect x="488" y="330" width="26" height="90" rx="3"/>
  </g>
  <!-- chat assistant -->
  <rect x="544" y="214" width="148" height="228" rx="10" fill="#0E1B2A"/>
  <rect x="562" y="236" width="96" height="22" rx="11" fill="#1E3550"/>
  <rect x="578" y="270" width="96" height="22" rx="11" fill="#0072BC"/>
  <rect x="562" y="304" width="80" height="22" rx="11" fill="#1E3550"/>
  <circle cx="668" cy="416" r="16" fill="#C0561F"/>
  <text x="668" y="421" font-family="'IBM Plex Mono',monospace" font-size="13" fill="#fff" text-anchor="middle">AI</text>
  <text x="64" y="496" font-family="'IBM Plex Mono',monospace" font-size="12" fill="#6B7884">R Shiny · bslib · Posit Connect · assistant IA</text>
</svg>
